<svg xmlns="http://www.w3.org/2000/svg" width="25.046" height="23.911"
     viewBox="0 0 25.046 23.911">
    <g id="Group_3739" data-name="Group 3739" transform="translate(0 0)">
        <path id="Path_8028" data-name="Path 8028"
              d="M2.2,42.029l.69.69a.5.5,0,0,1,0,.709L.457,45.857a1.559,1.559,0,0,0,2.2,2.2L5.09,45.632a.5.5,0,0,0,0-.708l-.748-.748,2.147,2.147a.5.5,0,0,0,.708,0,1.477,1.477,0,0,0,0-2.089L4.285,41.32a1.478,1.478,0,0,0-2.089,0,.5.5,0,0,0,0,.709"
              transform="translate(0 -24.607)" fill="#6d4063"/>
        <path id="Path_8029" data-name="Path 8029"
              d="M17.822,17.174l-1.081-1.081a1.559,1.559,0,1,1,2.2-2.2l1.081,1.082a.989.989,0,1,0,1.4-1.4,3.088,3.088,0,0,1,0-4.367l3.139-3.139A3.631,3.631,0,0,0,25.628,3.5V.5a.5.5,0,0,0-.5-.5h-3a3.631,3.631,0,0,0-2.567,1.064L14.594,6.032a.5.5,0,0,1-.708,0L8.917,1.064A3.632,3.632,0,0,0,6.35,0h-3a.5.5,0,0,0-.5.5v3A3.631,3.631,0,0,0,3.915,6.065L7.055,9.2a3.087,3.087,0,0,1,0,4.367.989.989,0,0,0,1.4,1.4l1.082-1.082a1.559,1.559,0,1,1,2.2,2.2l-1.081,1.081a.989.989,0,0,0,1.4,1.4l1.261-1.261a1.3,1.3,0,0,1,1.845,0l1.261,1.261a.989.989,0,0,0,1.4-1.4M22.044,2.768h.315a.5.5,0,0,1,.5.5v.315a3.352,3.352,0,0,1-.982,2.37L18.2,9.635a.5.5,0,0,1-.709,0l-1.5-1.5a.5.5,0,0,1,0-.708L19.674,3.75a3.351,3.351,0,0,1,2.37-.982M5.62,3.584V3.269a.5.5,0,0,1,.5-.5h.315a3.35,3.35,0,0,1,2.37.982l3.681,3.681a.5.5,0,0,1,0,.708l-1.5,1.5a.5.5,0,0,1-.709,0L6.6,5.954a3.35,3.35,0,0,1-.982-2.37m6.77,7.45h0a2.616,2.616,0,0,1,3.7,0,.5.5,0,0,1,0,.709l-1.5,1.5a.5.5,0,0,1-.708,0l-1.5-1.5a.5.5,0,0,1,0-.709"
              transform="translate(-1.716 0)" fill="#c59bbb"/>
        <path id="Path_8030" data-name="Path 8030"
              d="M48.483,42.719l.69-.69a.5.5,0,0,0,0-.709,1.477,1.477,0,0,0-2.089,0l-2.913,2.913a1.477,1.477,0,0,0,0,2.089.5.5,0,0,0,.709,0l2.147-2.147-.748.748a.5.5,0,0,0,0,.709l2.429,2.429a1.558,1.558,0,0,0,2.2-2.2l-2.429-2.429a.5.5,0,0,1,0-.709"
              transform="translate(-26.322 -24.606)" fill="#6d4063"/>
        <path id="Path_8031" data-name="Path 8031"
              d="M17,10.5l-.774-.774v1.21a.5.5,0,0,0,.147.354l.48.481a.5.5,0,0,0,.709-.709Z"
              transform="translate(-9.763 -5.852)" fill="#fff"/>
        <path id="Path_8032" data-name="Path 8032"
              d="M43.809,11.768l.481-.481a.5.5,0,0,0,.147-.354V9.724l-.774.774-.562.562a.5.5,0,1,0,.709.709"
              transform="translate(-25.849 -5.852)" fill="#fff"/>
    </g>
</svg>
