<svg xmlns="http://www.w3.org/2000/svg" width="42.038" height="52.067" viewBox="0 0 42.038 52.067">
  <g id="backpack" transform="translate(-62.812 -18.156)">
    <path id="Path_8187" data-name="Path 8187" d="M81.14,18.156V43.225h5.4V18.156h-5.4Zm-16.576.36-1.753,15a38.081,38.081,0,0,0,16.281,5.816V19.8c-4.847-.2-9.69-.645-14.529-1.28Zm38.279.031A114.254,114.254,0,0,1,88.59,19.857v19.17a56.074,56.074,0,0,0,16.261-5.57l-2.006-14.912Zm-.212,18.243A54.126,54.126,0,0,1,88.59,41.058v2.167h4.057V58.91H88.59v.955c0,3.769-2.247,6.144-4.738,6.165s-4.758-2.338-4.758-6.165V58.91H75.04V43.225h4.053V41.342a38.546,38.546,0,0,1-13.988-4.17,205.523,205.523,0,0,1-.555,30.461,73.131,73.131,0,0,0,38.581,0,251.779,251.779,0,0,1-.5-30.844ZM77.087,45.272V56.863H90.6V45.272H77.087Zm2.242,1.989h9.027v7.394H79.33V47.261Zm2.047,2.047v3.3H86.31v-3.3H81.377Zm-.236,9.6v.955c0,3.092,1.459,4.129,2.694,4.118s2.708-1.1,2.708-4.118V58.91h-5.4Z" fill="#fff"/>
  </g>
</svg>
