<svg xmlns="http://www.w3.org/2000/svg" width="106.838" height="55.385" viewBox="0 0 106.838 55.385">
  <g id="binance" transform="translate(-432.864 -954.808)">
    <g id="Binance_logo_2_" data-name="Binance_logo (2)" transform="translate(400.547 988.351)">
      <path id="Path_7576" data-name="Path 7576" d="M148.37,30.679h6.867a5.238,5.238,0,0,1,3.867,1.312,3.425,3.425,0,0,1,1.014,2.519v.042a3.636,3.636,0,0,1-.158,1.122,3.488,3.488,0,0,1-.421.878,3.347,3.347,0,0,1-.61.688,4.09,4.09,0,0,1-.747.508,5,5,0,0,1,2.023,1.323,3.387,3.387,0,0,1,.738,2.318v.042a3.846,3.846,0,0,1-.391,1.778,3.455,3.455,0,0,1-1.12,1.27,5.248,5.248,0,0,1-1.754.762,9.449,9.449,0,0,1-2.271.254H148.37Zm6.18,5.99a3.394,3.394,0,0,0,1.714-.37,1.279,1.279,0,0,0,.635-1.2V35.06a1.3,1.3,0,0,0-.55-1.132,2.719,2.719,0,0,0-1.587-.392h-3.217v3.133Zm.868,5.969a3.132,3.132,0,0,0,1.693-.391,1.341,1.341,0,0,0,.614-1.217v-.042a1.4,1.4,0,0,0-.572-1.175,3.08,3.08,0,0,0-1.842-.434h-3.768v3.26h3.874Z" transform="translate(-116.053 -23.909)" fill="#a6729e"/>
      <path id="Path_7577" data-name="Path 7577" d="M223.875,30.679h3.26V45.5h-3.26Z" transform="translate(-174.896 -23.909)" fill="#a6729e"/>
      <path id="Path_7578" data-name="Path 7578" d="M261.02,30.679h3.005l6.943,9.123V30.679h3.217V45.5h-2.773l-7.176-9.419V45.5H261.02Z" transform="translate(-203.843 -23.909)" fill="#a6729e"/>
      <path id="Path_7579" data-name="Path 7579" d="M342.972,30.2h3.005l6.35,14.923h-3.408L347.565,41.8H341.3l-1.355,3.323h-3.324Zm3.429,8.721-1.969-4.8-1.968,4.8Z" transform="translate(-262.76 -23.535)" fill="#a6729e"/>
      <path id="Path_7580" data-name="Path 7580" d="M423.738,30.679h3.006l6.943,9.123V30.679H436.9V45.5h-2.773l-7.176-9.419V45.5h-3.217Z" transform="translate(-330.652 -23.909)" fill="#a6729e"/>
      <path id="Path_7581" data-name="Path 7581" d="M509.722,44.853a7.675,7.675,0,0,1-3.027-.593,7.305,7.305,0,0,1-4-4.043,7.8,7.8,0,0,1-.572-2.985V37.19a7.725,7.725,0,0,1,.572-2.974,7.637,7.637,0,0,1,1.587-2.434,7.358,7.358,0,0,1,2.434-1.651,7.926,7.926,0,0,1,3.133-.6,9.824,9.824,0,0,1,1.894.169,7.935,7.935,0,0,1,1.556.466,6.781,6.781,0,0,1,1.291.72,8.8,8.8,0,0,1,1.1.932l-2.074,2.392a7.864,7.864,0,0,0-1.768-1.228,4.505,4.505,0,0,0-2.021-.444,4.1,4.1,0,0,0-3.09,1.355,4.651,4.651,0,0,0-.889,1.471,5.007,5.007,0,0,0-.317,1.789v.042a5.089,5.089,0,0,0,.317,1.8,4.709,4.709,0,0,0,.879,1.482,4.071,4.071,0,0,0,3.1,1.376,4.538,4.538,0,0,0,2.148-.466,8.313,8.313,0,0,0,1.746-1.27l2.074,2.1a10.769,10.769,0,0,1-1.185,1.1,7.045,7.045,0,0,1-1.344.836,6.966,6.966,0,0,1-1.6.529A9.641,9.641,0,0,1,509.722,44.853Z" transform="translate(-391.739 -23.012)" fill="#a6729e"/>
      <path id="Path_7582" data-name="Path 7582" d="M581.467,30.679h11.155v2.9h-7.937v3.006h6.985v2.9h-6.985V42.6h8.044v2.9H581.467Z" transform="translate(-453.573 -23.909)" fill="#a6729e"/>
    </g>
    <g id="Group_3107" data-name="Group 3107" transform="translate(-3.121 -58.829)">
      <path id="Path_7583" data-name="Path 7583" d="M27.663,14.129,34.193,7.6l6.533,6.533,3.8-3.8L34.193,0,23.864,10.329Z" transform="translate(455.211 1013.637)" fill="#a6729e"/>
      <rect id="Rectangle_367" data-name="Rectangle 367" width="5.373" height="5.373" transform="translate(476.392 1026.648) rotate(45)" fill="#a6729e"/>
      <path id="Path_7584" data-name="Path 7584" d="M27.648,73.4l6.53,6.529L40.71,73.4l3.8,3.8,0,0L34.177,87.528,23.848,77.2l-.005-.005Z" transform="translate(455.225 959.732)" fill="#a6729e"/>
      <rect id="Rectangle_368" data-name="Rectangle 368" width="5.373" height="5.373" transform="translate(506.215 1030.449) rotate(135)" fill="#a6729e"/>
      <path id="Path_7585" data-name="Path 7585" d="M55.945,52.635h0L52.091,48.78l-2.849,2.849h0l-.327.327-.675.675h0l-.005.005.005.006,3.852,3.852,3.855-3.855,0,0Z" transform="translate(437.312 977.811)" fill="#a6729e"/>
    </g>
  </g>
</svg>
