<svg xmlns="http://www.w3.org/2000/svg" width="29" height="29" viewBox="0 0 29 29">
  <g id="BNB_icon" transform="translate(-722 -608)">
    <path id="Path_4107" data-name="Path 4107" d="M27.141,12.186l5.632-5.632,5.635,5.635,3.277-3.277L32.773,0,23.864,8.909Z" transform="translate(703.727 608)" fill="#f3ba2f"/>
    <rect id="Rectangle_172" data-name="Rectangle 172" width="4.634" height="4.635" transform="translate(725.277 619.222) rotate(45)" fill="#f3ba2f"/>
    <path id="Path_4108" data-name="Path 4108" d="M27.125,73.4l5.632,5.632L38.391,73.4l3.279,3.275,0,0-8.912,8.912-8.909-8.909,0,0Z" transform="translate(703.744 551.415)" fill="#f3ba2f"/>
    <rect id="Rectangle_173" data-name="Rectangle 173" width="4.634" height="4.634" transform="translate(751 622.501) rotate(135)" fill="#f3ba2f"/>
    <path id="Path_4109" data-name="Path 4109" d="M54.885,52.105h0L51.561,48.78,49.1,51.237h0l-.282.282-.582.582h0l0,0,0,0,3.322,3.322,3.325-3.325,0,0Z" transform="translate(684.939 570.393)" fill="#f3ba2f"/>
  </g>
</svg>
