<svg xmlns="http://www.w3.org/2000/svg" xmlns:xlink="http://www.w3.org/1999/xlink" width="103.909" height="26.252" viewBox="0 0 103.909 26.252">
  <defs>
    <clipPath id="clip-path">
      <path id="Path_7586" data-name="Path 7586" d="M13.035,22.966C11.513,24.05,10.6,25.4,11.023,25.992s1.995.194,3.516-.893,2.432-2.431,2.012-3.025a.768.768,0,0,0-.7-.263h-.043a5.419,5.419,0,0,0-2.773,1.155m-8.4-2.309c-2.957,1.224-5,3.043-4.583,4.076s3.166.875,6.123-.332c2.956-1.224,5-3.043,4.583-4.076-.192-.454-.84-.682-1.767-.682H8.911a11.769,11.769,0,0,0-4.273,1.014m13.54-1.225c-.525,1-.683,1.942-.368,2.1.315.176,1-.508,1.522-1.5s.683-1.943.368-2.1a.23.23,0,0,0-.105-.017H19.58c-.352,0-.937.641-1.4,1.522m-4.269-2.764c-1.014.578-1.539,1.557-1.189,2.187.368.63,1.47.647,2.484.069s1.54-1.557,1.19-2.186a1.139,1.139,0,0,0-1.05-.49,2.965,2.965,0,0,0-1.435.419m3.744-1.33c-.3.508-.28,1.066.053,1.26.315.193.822-.088,1.1-.594.3-.509.28-1.068-.052-1.26a.486.486,0,0,0-.228-.054,1.241,1.241,0,0,0-.875.648m-3.761-2.187a1.179,1.179,0,0,0,1.242,1.1,1.2,1.2,0,0,0,1.26-1.1,1.261,1.261,0,0,0-2.5,0m-8.343,0c0,1.365,1.539,2.467,3.446,2.467,1.89.017,3.429-1.085,3.429-2.467,0-1.365-1.539-2.467-3.446-2.467-1.889,0-3.428,1.1-3.428,2.467M17.74,9.671c-.315.193-.333.752-.053,1.259.3.508.787.77,1.1.6.315-.193.333-.752.052-1.26a1.134,1.134,0,0,0-.874-.647.235.235,0,0,0-.047,0,.4.4,0,0,0-.18.057M12.772,7.415c-.368.63.175,1.61,1.19,2.187s2.117.559,2.484-.07-.175-1.609-1.19-2.187a2.968,2.968,0,0,0-1.435-.42,1.12,1.12,0,0,0-1.05.489M17.81,4.738c-.315.175-.158,1.1.368,2.1S19.384,8.5,19.7,8.342c.314-.176.158-1.1-.368-2.1C18.86,5.35,18.265,4.72,17.915,4.72a.231.231,0,0,0-.106.018M.055,1.537c-.42,1.032,1.627,2.851,4.583,4.076s5.685,1.365,6.122.332c.421-1.032-1.627-2.851-4.583-4.076A12.415,12.415,0,0,0,1.822.855c-.928,0-1.575.227-1.767.682M11.005.278c-.42.6.49,1.942,2.012,3.027s3.1,1.487,3.516.892-.49-1.942-2.012-3.027A5.631,5.631,0,0,0,11.7.015a.818.818,0,0,0-.7.263" transform="translate(0 -0.015)" fill="#d1b6cd"/>
    </clipPath>
  </defs>
  <g id="btcturk" transform="translate(0 -0.015)">
    <g id="Group_3110" data-name="Group 3110" transform="translate(0 0.015)">
      <g id="Group_3109" data-name="Group 3109" clip-path="url(#clip-path)">
        <rect id="Rectangle_370" data-name="Rectangle 370" width="20.379" height="26.572" transform="translate(-0.365 0.001)" fill="#d1b6cd"/>
      </g>
    </g>
    <path id="Path_7587" data-name="Path 7587" d="M44,8.654h5.769c3.169,0,5.36,1.727,5.36,4.487a3.543,3.543,0,0,1-2.048,3.365,4.093,4.093,0,0,1,3.044,4.131c0,3.009-2.315,4.843-5.965,4.843h-6.2Zm5.573,6.963c1.6,0,2.725-.8,2.725-2.244s-1.122-2.243-2.725-2.243H46.849v4.487Zm.516,7.354c1.887,0,3.116-.872,3.116-2.528,0-1.567-1.282-2.475-3.169-2.475H46.83v5Zm13.925.25a2.075,2.075,0,0,0,1.318-.357v2.475a4.184,4.184,0,0,1-2.154.445,3.559,3.559,0,0,1-3.846-3.918v-5.8H57.212V15.67l4.844-5h.071v3.045H65.3V16.08H62.179v5.289c0,1.281.553,1.852,1.835,1.852m9.206-9.812a6.281,6.281,0,0,1,3.2.837v2.76a5.052,5.052,0,0,0-2.956-1.033,3.651,3.651,0,1,0,0,7.3,5.543,5.543,0,0,0,3.009-1.033V25a6.637,6.637,0,0,1-3.277.837,5.98,5.98,0,0,1-6.286-6.162,6.031,6.031,0,0,1,6.3-6.267m3.2-4.755H88.836v2.689H84.118V25.482H81.162V11.343h-4.72V8.654Zm20.745,5.04h2.849V25.465H97.171V23.9a4.176,4.176,0,0,1-3.651,1.834c-2.848,0-4.559-1.887-4.559-4.968V13.675h2.849v6.571c0,1.834.925,2.921,2.6,2.921s2.76-1.283,2.76-3.277Zm13.212,2.671a1.74,1.74,0,0,0-.712-.071c-2.084,0-3.33,1.6-3.33,4.007v5.2h-2.8V13.694h2.759v1.994a3.875,3.875,0,0,1,3.562-2.243,1.046,1.046,0,0,1,.516.071Zm4.684,9.1h-2.8V8.654h2.8Zm4.79-11.771h3.491l-4.488,5.556,4.968,6.2h-3.49l-4.968-6.2Z" transform="translate(-19.919 -3.914)" fill="#833a78"/>
  </g>
</svg>
