<svg xmlns="http://www.w3.org/2000/svg" width="35.984" height="40.973" viewBox="0 0 35.984 40.973">
  <g id="certik-logotype-h-w" transform="translate(1 0.866)">
    <path id="Path_79" data-name="Path 79" d="M2.233,76.271V93.316L0,94.606V74.98Z" transform="translate(0 -65.173)" fill="#fff" stroke="#fff" stroke-width="1"/>
    <path id="Path_80" data-name="Path 80" d="M146.879,9.808l-2.233,1.29L129.884,2.58V0Z" transform="translate(-112.895)" fill="#fff" stroke="#fff" stroke-width="1"/>
    <path id="Path_81" data-name="Path 81" d="M146.879,216.446l-17,9.808v-2.58l14.762-8.518Z" transform="translate(-112.895 -187.013)" fill="#fff" stroke="#fff" stroke-width="1"/>
    <g id="Group_72" data-name="Group 72" transform="translate(0 28.143)" opacity="0.3">
      <path id="Path_82" data-name="Path 82" d="M16.989,223.674v2.58L0,216.446l2.233-1.29Z" transform="translate(0 -215.156)" fill="#fff" stroke="#fff" stroke-width="1" opacity="0.3"/>
    </g>
    <g id="Group_73" data-name="Group 73" transform="translate(31.751 9.808)" opacity="0.3">
      <path id="Path_83" data-name="Path 83" d="M244.974,74.98V94.606l-2.233-1.29V76.271Z" transform="translate(-242.741 -74.98)" fill="#fff" stroke="#fff" stroke-width="1" opacity="0.3"/>
    </g>
    <g id="Group_74" data-name="Group 74" opacity="0.3">
      <path id="Path_84" data-name="Path 84" d="M16.989,0V2.58L2.233,11.1,0,9.808Z" fill="#fff" stroke="#fff" stroke-width="1" opacity="0.3"/>
    </g>
    <path id="Path_85" data-name="Path 85" d="M89.559,82.879l5.851,1.767a.374.374,0,0,1-.213.712l-5.638-1.7-5.622,1.7a.374.374,0,0,1-.215-.712Z" transform="translate(-72.574 -72.038)" fill="#fff" stroke="#fff" stroke-width="1" fill-rule="evenodd"/>
    <path id="Path_86" data-name="Path 86" d="M81.18,102.213a.383.383,0,0,0-.719-.11l-3.391,6.613H68.425L65.038,102.1a.389.389,0,0,0-.374-.207.384.384,0,0,0-.348.317,16.654,16.654,0,0,0,.329,6.417,14.229,14.229,0,0,0,7.934,9.584l.163.079.162-.079a14.226,14.226,0,0,0,7.936-9.581A16.637,16.637,0,0,0,81.18,102.213Zm-15.812,6.238a16.469,16.469,0,0,1-.445-4.942l2.947,5.745L71.861,117A13.334,13.334,0,0,1,65.367,108.451Zm7.375,8.62-3.931-7.611h7.876Zm7.38-8.62a13.381,13.381,0,0,1-6.5,8.543l4.009-7.735,2.946-5.739A16.47,16.47,0,0,1,80.122,108.451Z" transform="translate(-55.756 -88.566)" fill="#fff" stroke="#fff" stroke-width="1" fill-rule="evenodd"/>
  </g>
</svg>
