<svg xmlns="http://www.w3.org/2000/svg" width="96.419" height="25.483" viewBox="0 0 96.419 25.483">
  <g id="coingecko" transform="translate(-0.001 0.001)">
    <g id="Coin_Gecko_Vector_Text" data-name="Coin Gecko Vector Text" transform="translate(33.381 6.96)">
      <path id="Path_7601" data-name="Path 7601" d="M402,124.047a2.127,2.127,0,0,0-2.216-1.77c-1.908,0-2.705,1.682-2.705,3.389s.8,3.39,2.705,3.39a2.288,2.288,0,0,0,2.268-2.33h1.521a3.644,3.644,0,0,1-3.786,3.6c-2.667,0-4.263-2.119-4.263-4.662S397.11,121,399.777,121c2.006.012,3.589,1.122,3.776,3.041Z" transform="translate(-395.52 -121)" fill="#833a78"/>
      <path id="Path_7602" data-name="Path 7602" d="M492.66,151.4a3.256,3.256,0,1,1,3.253,3.4A3.111,3.111,0,0,1,492.66,151.4Zm5.085,0c0-1.108-.56-2.268-1.832-2.268s-1.832,1.159-1.832,2.268.56,2.282,1.832,2.282S497.745,152.521,497.745,151.4Z" transform="translate(-483.691 -145.516)" fill="#833a78"/>
      <path id="Path_7603" data-name="Path 7603" d="M576.35,123.3h1.421v1.346H576.35Zm0,2.456h1.421V132.2H576.35Z" transform="translate(-559.654 -123.088)" fill="#833a78"/>
      <path id="Path_7604" data-name="Path 7604" d="M608.48,148.175h1.346v.947l.025.025A2.308,2.308,0,0,1,611.858,148a2.037,2.037,0,0,1,2.281,2.193v4.425h-1.421v-4.051c-.025-1.009-.424-1.445-1.258-1.445a1.57,1.57,0,0,0-1.559,1.694v3.8H608.48Z" transform="translate(-588.817 -145.507)" fill="#833a78"/>
      <path id="Path_7605" data-name="Path 7605" d="M691.856,130.112h-1l-.236-1.047a3.2,3.2,0,0,1-2.678,1.258c-2.666,0-4.265-2.122-4.265-4.662s1.6-4.662,4.263-4.662a3.507,3.507,0,0,1,3.813,3.041h-1.521a2.123,2.123,0,0,0-2.293-1.77c-1.908,0-2.705,1.682-2.705,3.389s.8,3.39,2.705,3.39a2.263,2.263,0,0,0,2.493-2.443h-2.368v-1.183h3.786Z" transform="translate(-657.074 -121)" fill="#833a78"/>
      <path id="Path_7606" data-name="Path 7606" d="M786.481,151.773a1.714,1.714,0,0,0,1.732,1.908,1.493,1.493,0,0,0,1.57-1.072h1.347a2.822,2.822,0,0,1-2.917,2.194c-2.018,0-3.153-1.409-3.153-3.39a3.119,3.119,0,1,1,6.158.361Zm3.316-.934a1.659,1.659,0,1,0-3.316,0Z" transform="translate(-749.093 -145.516)" fill="#833a78"/>
      <path id="Path_7607" data-name="Path 7607" d="M864.782,150.34a1.362,1.362,0,0,0-1.471-1.209c-.739,0-1.77.386-1.77,2.342,0,1.072.474,2.207,1.707,2.207a1.532,1.532,0,0,0,1.534-1.471H866.2a2.772,2.772,0,0,1-2.955,2.593,3.031,3.031,0,0,1-3.128-3.329c0-1.944,1.06-3.464,3.178-3.464a2.607,2.607,0,0,1,2.9,2.33Z" transform="translate(-817.223 -145.516)" fill="#833a78"/>
      <path id="Path_7608" data-name="Path 7608" d="M939,123.3h1.421v5.061l2.568-2.6h1.745l-2.468,2.367,2.7,4.076h-1.736l-1.969-3.129-.848.823V132.2H939Z" transform="translate(-888.82 -123.088)" fill="#833a78"/>
      <path id="Path_7609" data-name="Path 7609" d="M1007.81,151.4a3.257,3.257,0,1,1,3.253,3.4A3.111,3.111,0,0,1,1007.81,151.4Zm5.086,0c0-1.108-.561-2.268-1.833-2.268s-1.832,1.159-1.832,2.268.56,2.282,1.832,2.282S1012.9,152.521,1012.9,151.4Z" transform="translate(-951.277 -145.516)" fill="#833a78"/>
    </g>
    <g id="Coin_Gecko_AI" data-name="Coin Gecko AI" transform="translate(0.001 -0.001)">
      <path id="Path_7610" data-name="Path 7610" d="M59.484,58.294a12.742,12.742,0,1,1-12.8-12.685,12.742,12.742,0,0,1,12.8,12.685Z" transform="translate(-34.001 -45.609)" fill="#ad7ca5"/>
      <path id="Path_7611" data-name="Path 7611" d="M67.96,67.729A11.784,11.784,0,1,1,56.123,56,11.784,11.784,0,0,1,67.96,67.729Z" transform="translate(-43.432 -55.039)" fill="#e7d8e4"/>
      <path id="Path_7612" data-name="Path 7612" d="M174.341,63.29a6.48,6.48,0,0,1,2.265,0,6.894,6.894,0,0,1,2.163.725,12.567,12.567,0,0,1,1.831,1.341c.578.47,1.153.951,1.7,1.477a8.622,8.622,0,0,1,1.451,1.754,9.979,9.979,0,0,1,1.016,2.047,9.316,9.316,0,0,1,.417,4.489h-.073A20.679,20.679,0,0,0,184,70.912a16.433,16.433,0,0,0-.872-1.962,19.269,19.269,0,0,0-1.147-1.84,6.675,6.675,0,0,0-1.536-1.551,8.952,8.952,0,0,0-1.952-.965c-.666-.262-1.326-.534-2.02-.733s-1.4-.349-2.137-.494Z" transform="translate(-161.382 -61.567)" fill="#fff"/>
      <path id="Path_7613" data-name="Path 7613" d="M84,115.311c-.855-.247-1.741-.6-2.639-.953a1.807,1.807,0,0,0-.655-.849,3.184,3.184,0,0,0-2.64-.271,6.59,6.59,0,0,0-3.085-.092c-8.148,2.245-3.528,7.721-6.519,13.225.426.9,5.014,6.171,11.652,4.758,0,0-2.27-5.456,2.853-8.074C87.121,120.924,90.124,116.979,84,115.311Z" transform="translate(-65.278 -106.78)" fill="#ad7ca5"/>
      <path id="Path_7614" data-name="Path 7614" d="M237.928,171.981a.494.494,0,1,1-.5-.491A.494.494,0,0,1,237.928,171.981Z" transform="translate(-218.203 -159.867)" fill="#fff"/>
      <path id="Path_7615" data-name="Path 7615" d="M172.48,113.684a12.187,12.187,0,0,1,3.294,1.119C175.313,113.464,173.759,113.286,172.48,113.684Z" transform="translate(-159.694 -107.229)" fill="#833a78"/>
      <path id="Path_7616" data-name="Path 7616" d="M133.8,129.8a2.279,2.279,0,1,1-2.278-2.278A2.279,2.279,0,0,1,133.8,129.8Z" transform="translate(-120.447 -119.957)" fill="#fff"/>
      <path id="Path_7617" data-name="Path 7617" d="M139.766,136.653a1.6,1.6,0,1,1-1.6-1.6A1.6,1.6,0,0,1,139.766,136.653Z" transform="translate(-127.091 -126.792)" fill="#833a78"/>
      <path id="Path_7618" data-name="Path 7618" d="M85.561,177.842a11.4,11.4,0,0,1-6.925,2.288c-1.394,0-1.677-1.477-2.6-.755a6.559,6.559,0,0,1-3.483,1.15,4.337,4.337,0,0,1-4.088-3.684c-.238,2.84-.36,4.932-1.427,7.33,2.124,3.4,7.187,6.024,11.783,4.894-.494-3.449,2.52-6.826,4.218-8.554a22.346,22.346,0,0,0,2.52-2.669Z" transform="translate(-63.99 -164.723)" fill="#ad7ca5"/>
      <path id="Path_7619" data-name="Path 7619" d="M182.21,188.329a8.263,8.263,0,0,1-1.95,1.251,12.4,12.4,0,0,1-2.188.8,6.874,6.874,0,0,1-2.335.27,3.2,3.2,0,0,1-2.137-.939l.025-.029a4.071,4.071,0,0,0,2.135.588,10.024,10.024,0,0,0,2.244-.185,12.219,12.219,0,0,0,2.18-.674,8.114,8.114,0,0,0,2-1.108Z" transform="translate(-160.711 -175.125)" fill="#833a78"/>
    </g>
  </g>
</svg>
