<svg xmlns="http://www.w3.org/2000/svg" width="102.999" height="52" viewBox="0 0 102.999 52">
  <path id="coinbase" d="M11737,52h-103V0h103V52Zm-87.973-29.192a6.02,6.02,0,0,0-6.31,6.274,5.938,5.938,0,0,0,6.29,6.254h.125a7.059,7.059,0,0,0,3.323-.834c-.021-.009-1.208-1.85-1.211-1.873a5.04,5.04,0,0,1-1.867.356,3.983,3.983,0,0,1-2.851-1.058,3.859,3.859,0,0,1-1.1-2.845,3.62,3.62,0,0,1,3.835-3.891,4.956,4.956,0,0,1,1.853.342l1.143-1.926A6.541,6.541,0,0,0,11649.027,22.808Zm74.114,0c-3.408,0-5.788,2.616-5.788,6.362s2.463,6.165,6.273,6.165a7.54,7.54,0,0,0,4.222-1.11V31.871a6.834,6.834,0,0,1-4.03,1.169,4.183,4.183,0,0,1-2.577-.852,3.365,3.365,0,0,1-1.293-2.456v-.05h8.336V28.328C11728.284,24.82,11726.41,22.808,11723.142,22.808Zm-15.094,9.013h0l.006.006v2.539a7.034,7.034,0,0,0,3.564.969h.145c2.868,0,4.513-1.332,4.513-3.655,0-2.109-1.1-3.169-3.921-3.779-1.4-.389-1.892-.8-1.892-1.57,0-.836.684-1.355,1.785-1.355a5.594,5.594,0,0,1,3.358,1.214V23.727a6.231,6.231,0,0,0-3.437-.919c-2.68,0-4.28,1.354-4.28,3.623,0,2.049.994,3.074,3.544,3.658,1.554.41,2.247.758,2.247,1.732,0,.886-.683,1.355-1.974,1.355a6.252,6.252,0,0,1-3.652-1.349v-.006h-.006Zm-23.789-15.158V34.552a13.516,13.516,0,0,0,4.472.784c4.319,0,7-2.477,7-6.466a5.68,5.68,0,0,0-6.06-6.062,6.519,6.519,0,0,0-2.733.592V16.663Zm-25.661,6.145a5.956,5.956,0,0,0-6.175,6.274,6.185,6.185,0,1,0,12.369,0A5.965,5.965,0,0,0,11658.6,22.808Zm43.553,5.22a7.69,7.69,0,0,0-4.074.9,3.04,3.04,0,0,0-1.475,2.729c0,2.424,1.812,3.653,5.385,3.653a17.752,17.752,0,0,0,4.114-.486v-7.93c0-2.711-1.512-4.086-4.492-4.086h-.069a8.037,8.037,0,0,0-3.824.969V26.11a6.654,6.654,0,0,1,3.458-.978c1.446,0,2.31.709,2.31,1.9h-.006v1Zm-25.35-2.781c1.7,0,2.568.792,2.568,2.354v7.464h2.646V27.35a4.282,4.282,0,0,0-1.354-3.538,5.606,5.606,0,0,0-3.653-1,16.062,16.062,0,0,0-5.49,1.028h.009V35.059h2.672V25.6A9.166,9.166,0,0,1,11676.8,25.247Zm-10.3-2.168v11.98h2.681V23.079Zm1.322-5.258a1.685,1.685,0,0,0-1.68,1.573h.006a1.677,1.677,0,1,0,3.353,0A1.688,1.688,0,0,0,11667.82,17.821Zm34.2,15.485c-1.26,0-2.761-.3-2.761-1.726,0-1.142,1.1-1.77,3.088-1.77h1.14l-.006.009v3.358A9.978,9.978,0,0,1,11702.016,33.306Zm-13.208-.265a6.373,6.373,0,0,1-1.868-.25v-7a4.932,4.932,0,0,1,2.41-.571,3.535,3.535,0,0,1,3.682,3.709C11693.031,31.5,11691.452,33.041,11688.808,33.041Zm-30.21,0a3.279,3.279,0,0,1-2.485-1.075,4.235,4.235,0,0,1-.982-2.884c0-2.378,1.394-3.977,3.468-3.977,2.09,0,3.493,1.6,3.493,3.977S11660.688,33.041,11658.6,33.041Zm67.168-5.09h-5.738c.356-1.814,1.489-2.9,3.028-2.9,1.716,0,2.653,1,2.71,2.895Z" transform="translate(-11634.001)" fill="#d1b6cd"/>
</svg>
