<svg xmlns="http://www.w3.org/2000/svg" width="16.008" height="19.016" viewBox="0 0 16.008 19.016">
  <path id="copy" d="M10.065,19.016H2.971A2.975,2.975,0,0,1,0,16.045V5.98A2.975,2.975,0,0,1,2.971,3.008h7.094A2.975,2.975,0,0,1,13.037,5.98V16.045A2.975,2.975,0,0,1,10.065,19.016ZM2.971,4.494A1.487,1.487,0,0,0,1.486,5.98V16.045a1.487,1.487,0,0,0,1.486,1.486h7.094a1.487,1.487,0,0,0,1.486-1.486V5.98a1.487,1.487,0,0,0-1.486-1.486Zm13.037,9.694V2.971A2.975,2.975,0,0,0,13.037,0H4.791a.743.743,0,0,0,0,1.486h8.245a1.487,1.487,0,0,1,1.486,1.486V14.188a.743.743,0,0,0,1.486,0Zm0,0" fill="#fff"/>
</svg>
