<svg xmlns="http://www.w3.org/2000/svg" width="101" height="66.672" viewBox="0 0 101 66.672">
  <g id="Group_3140" data-name="Group 3140" transform="translate(-898 -9333)">
    <rect id="Rectangle_378" data-name="Rectangle 378" width="101" height="53" rx="7" transform="translate(898 9333)" fill="#c59bbb"/>
    <rect id="Rectangle_379" data-name="Rectangle 379" width="19.521" height="19.521" transform="translate(948.429 9372.065) rotate(45)" fill="#c59bbb"/>
    <g id="user_1_" data-name="user (1)" transform="translate(925.421 9342.071)">
      <g id="Group_3129" data-name="Group 3129" transform="translate(15.686 0)">
        <g id="Group_3128" data-name="Group 3128" transform="translate(0 0)">
          <ellipse id="Ellipse_614" data-name="Ellipse 614" cx="7.32" cy="6.914" rx="7.32" ry="6.914" transform="translate(0 0)" fill="#fff"/>
        </g>
      </g>
      <g id="Group_3131" data-name="Group 3131" transform="translate(32.012 7.986)">
        <g id="Group_3130" data-name="Group 3130">
          <circle id="Ellipse_615" data-name="Ellipse 615" cx="5.002" cy="5.002" r="5.002" fill="#fff"/>
        </g>
      </g>
      <g id="Group_3133" data-name="Group 3133" transform="translate(4.144 7.986)">
        <g id="Group_3132" data-name="Group 3132">
          <circle id="Ellipse_616" data-name="Ellipse 616" cx="5.002" cy="5.002" r="5.002" fill="#fff"/>
        </g>
      </g>
      <g id="Group_3135" data-name="Group 3135" transform="translate(10.004 15.989)">
        <g id="Group_3134" data-name="Group 3134">
          <path id="Path_7661" data-name="Path 7661" d="M119.671,256a13.02,13.02,0,0,0-13,13,1,1,0,0,0,1,1h24.009a1,1,0,0,0,1-1A13.02,13.02,0,0,0,119.671,256Z" transform="translate(-106.666 -256)" fill="#fff"/>
        </g>
      </g>
      <g id="Group_3137" data-name="Group 3137" transform="translate(0 19.991)">
        <g id="Group_3136" data-name="Group 3136" transform="translate(0 0)">
          <path id="Path_7662" data-name="Path 7662" d="M10.87,298.883A8.974,8.974,0,0,0,9,298.667a9.014,9.014,0,0,0-9,9,1,1,0,0,0,1,1H8.187a2.966,2.966,0,0,1-.184-1A14.911,14.911,0,0,1,10.87,298.883Z" transform="translate(0 -298.667)" fill="#fff"/>
        </g>
      </g>
      <g id="Group_3139" data-name="Group 3139" transform="translate(35.147 19.991)">
        <g id="Group_3138" data-name="Group 3138" transform="translate(0 0)">
          <path id="Path_7663" data-name="Path 7663" d="M376.63,298.667a8.971,8.971,0,0,0-1.867.216,14.911,14.911,0,0,1,2.867,8.787,2.966,2.966,0,0,1-.184,1h7.187a1,1,0,0,0,1-1A9.014,9.014,0,0,0,376.63,298.667Z" transform="translate(-374.763 -298.667)" fill="#fff"/>
        </g>
      </g>
    </g>
  </g>
</svg>
