<svg id="instagram" xmlns="http://www.w3.org/2000/svg" width="12.747" height="12.749" viewBox="0 0 12.747 12.749">
  <path id="Path_5" data-name="Path 5" d="M13.163,3.748a4.659,4.659,0,0,0-.3-1.547A3.266,3.266,0,0,0,11,.336,4.671,4.671,0,0,0,9.455.04C8.772.008,8.555,0,6.824,0S4.877.008,4.2.037a4.66,4.66,0,0,0-1.547.3,3.111,3.111,0,0,0-1.131.737A3.139,3.139,0,0,0,.785,2.2a4.671,4.671,0,0,0-.3,1.547c-.032.682-.04.9-.04,2.63S.456,8.324.486,9a4.658,4.658,0,0,0,.3,1.547,3.265,3.265,0,0,0,1.865,1.865,4.671,4.671,0,0,0,1.547.3c.68.03.9.037,2.628.037s1.948-.007,2.628-.037a4.657,4.657,0,0,0,1.547-.3,3.261,3.261,0,0,0,1.866-1.865A4.674,4.674,0,0,0,13.158,9c.03-.68.037-.9.037-2.628s0-1.948-.032-2.628ZM12.015,8.954a3.494,3.494,0,0,1-.219,1.183,2.115,2.115,0,0,1-1.21,1.21,3.507,3.507,0,0,1-1.183.219c-.672.03-.874.037-2.575.037s-1.905-.007-2.575-.037a3.493,3.493,0,0,1-1.183-.219,1.962,1.962,0,0,1-.732-.476,1.982,1.982,0,0,1-.476-.732,3.507,3.507,0,0,1-.219-1.183c-.03-.672-.037-.874-.037-2.575s.007-1.905.037-2.575a3.493,3.493,0,0,1,.219-1.183,1.938,1.938,0,0,1,.478-.732,1.979,1.979,0,0,1,.732-.476A3.509,3.509,0,0,1,4.254,1.2c.672-.03.874-.037,2.575-.037S8.735,1.166,9.4,1.2a3.494,3.494,0,0,1,1.183.219,1.96,1.96,0,0,1,.732.476,1.982,1.982,0,0,1,.476.732,3.509,3.509,0,0,1,.219,1.183c.03.672.037.874.037,2.575s-.007,1.9-.037,2.573Zm0,0" transform="translate(-0.449 0)" fill="#c59bbb"/>
  <path id="Path_6" data-name="Path 6" d="M128.224,124.5a3.275,3.275,0,1,0,3.275,3.275A3.276,3.276,0,0,0,128.224,124.5Zm0,5.4a2.124,2.124,0,1,1,2.124-2.124A2.125,2.125,0,0,1,128.224,129.9Zm0,0" transform="translate(-121.848 -121.399)" fill="#c59bbb"/>
  <path id="Path_7" data-name="Path 7" d="M363.979,89.366a.765.765,0,1,1-.765-.765A.765.765,0,0,1,363.979,89.366Zm0,0" transform="translate(-353.434 -86.395)" fill="#c59bbb"/>
</svg>
