<svg xmlns="http://www.w3.org/2000/svg" width="20" height="20" viewBox="0 0 20 20">
  <g id="pointy-sword" transform="translate(-1.189 -1.105)">
    <g id="Group_3444" data-name="Group 3444" transform="translate(1.189 1.105)">
      <path id="Path_8143" data-name="Path 8143" d="M16.929,14.553a1.167,1.167,0,0,0-1.267,1.267l.827,1.288a1.973,1.973,0,0,0,.6-.307l1.778,2.508a12.549,12.549,0,0,0-1.787,2.965l1.111,1.111a13.643,13.643,0,0,1,1.671-2.673l8.823,12.45,6.981,1.39-1.39-6.981L21.819,18.746a14.472,14.472,0,0,1,2.748-1.74l-1.111-1.111a12.511,12.511,0,0,0-3.044,1.854l-2.5-1.772a2.022,2.022,0,0,0,.307-.6l-1.288-.827Zm4.181,4.81,9.3,8.218,1.073,2.794L28.69,29.3,20.472,20q.308-.331.638-.639Z" transform="translate(-15.662 -14.553)" fill="#fff"/>
    </g>
  </g>
</svg>
