<svg xmlns="http://www.w3.org/2000/svg" width="49.925" height="50.029" viewBox="0 0 49.925 50.029">
  <g id="settings" transform="translate(-17.595 -18.78)">
    <path id="Path_8192" data-name="Path 8192" d="M40.289,18.78a25.179,25.179,0,0,0-7.82,1.962c1.605,3.422,1.485,6.967-.7,8.607s-5.646.832-8.473-1.639a24.79,24.79,0,0,0-4.06,6.854c3.533,1.288,5.915,3.934,5.529,6.632s-3.415,4.568-7.168,4.814a25.1,25.1,0,0,0,1.978,7.716,9.766,9.766,0,0,1,5.337-.934,4.715,4.715,0,0,1,3.254,1.74c1.652,2.2.794,5.715-1.753,8.561a25.171,25.171,0,0,0,6.955,4.077C34.654,63.638,37.3,61.256,40,61.642s4.568,3.415,4.814,7.168a25.164,25.164,0,0,0,7.82-1.961c-1.647-3.446-1.489-7.059.715-8.711a4.956,4.956,0,0,1,3.718-.744,9.562,9.562,0,0,1,4.759,2.379,25.13,25.13,0,0,0,4.06-6.851c-3.533-1.288-5.915-3.933-5.529-6.632s3.412-4.572,7.164-4.818a24.827,24.827,0,0,0-1.975-7.716c-3.406,1.579-6.962,1.373-8.594-.8s-.757-5.625,1.743-8.46a25.189,25.189,0,0,0-6.959-4.077c-1.288,3.533-3.933,5.918-6.632,5.532s-4.569-3.415-4.814-7.168Zm2.262,9.935A15.079,15.079,0,1,1,27.472,43.795,15.094,15.094,0,0,1,42.551,28.715Zm0,1.952A13.128,13.128,0,1,0,55.679,43.795,13.113,13.113,0,0,0,42.551,30.667Zm0,1.58A11.554,11.554,0,1,1,31,43.8,11.555,11.555,0,0,1,42.554,32.247Z" fill="#fff"/>
  </g>
</svg>
