<svg xmlns="http://www.w3.org/2000/svg" width="20" height="20.003" viewBox="0 0 20 20.003">
  <path id="shield" d="M74.54,64.2a10,10,0,1,0,9.71,10,10,10,0,0,0-9.71-10Zm-.241.476.466.269v.538l-.466.269-.464-.269v-.538Zm.184,1.525a8,8,0,1,1-5.807,2.258A8,8,0,0,1,74.483,66.2Zm-.6,1.045a6.968,6.968,0,0,0-3.4,1.09V80.054a6.968,6.968,0,0,0,3.4,1.1V67.25Zm.922.016V81.144A6.968,6.968,0,0,0,78.112,80V68.413A6.968,6.968,0,0,0,74.8,67.266Zm-5.241,1.791a6.952,6.952,0,0,0,0,10.3v-10.3Zm-3.167.085.465.269v.536l-.464.269-.466-.269v-.536l.466-.269Zm15.671,0,.466.269v.536l-.466.269-.464-.269v-.536l.464-.269Zm-3.033,0V79.262a6.952,6.952,0,0,0,0-10.115Zm3.015,9.028.466.269v.538l-.466.269-.464-.269v-.538l.464-.269Zm-15.635.037.466.269v.538l-.466.269-.466-.269v-.538l.466-.269Zm7.818,4.443.466.269v.538l-.466.269-.464-.269v-.538l.464-.269Z" transform="translate(-64.25 -64.199)" fill="#fff"/>
</svg>
