<svg id="twitter" xmlns="http://www.w3.org/2000/svg" width="13.739" height="11.163" viewBox="0 0 13.739 11.163">
  <path id="Path_4" data-name="Path 4" d="M13.739,49.321a5.872,5.872,0,0,1-1.623.445,2.8,2.8,0,0,0,1.239-1.557,5.629,5.629,0,0,1-1.786.682A2.816,2.816,0,0,0,6.7,50.817a2.9,2.9,0,0,0,.065.642A7.972,7.972,0,0,1,.957,48.513a2.817,2.817,0,0,0,.866,3.764A2.782,2.782,0,0,1,.55,51.931v.031a2.83,2.83,0,0,0,2.257,2.767,2.811,2.811,0,0,1-.738.093,2.49,2.49,0,0,1-.533-.048,2.843,2.843,0,0,0,2.632,1.962,5.659,5.659,0,0,1-3.492,1.2A5.276,5.276,0,0,1,0,57.9a7.929,7.929,0,0,0,4.321,1.264,7.961,7.961,0,0,0,8.017-8.015c0-.125,0-.245-.01-.364A5.619,5.619,0,0,0,13.739,49.321Z" transform="translate(0 -48)" fill="#c59bbb"/>
</svg>
