<svg xmlns="http://www.w3.org/2000/svg" width="108.538" height="22.737" viewBox="0 0 108.538 22.737">
  <g id="Uniswap" transform="translate(-14.8 -40.5)">
    <path id="Path_7588" data-name="Path 7588" d="M28.573,57.989c.489.856-.611,1.1-1.1,1.161-.733.061-.917-.367-.795-.917a1.331,1.331,0,0,1,.306-.489.91.91,0,0,1,.55-.244.822.822,0,0,1,.55.122A.759.759,0,0,1,28.573,57.989Z" transform="translate(-4.605 -6.61)" fill="#d1b6cd"/>
    <path id="Path_7589" data-name="Path 7589" d="M34.582,55.8c-.55,4.278,6.907,3.362,6.784,6.723a3.538,3.538,0,0,0-1.1-4.89C38.31,56.411,35.8,57.084,34.582,55.8Z" transform="translate(-7.68 -5.949)" fill="#d1b6cd"/>
    <path id="Path_7590" data-name="Path 7590" d="M41.622,53.022c-.061-.061-.122-.061-.122-.122A.131.131,0,0,0,41.622,53.022Z" transform="translate(-10.381 -4.821)" fill="#d1b6cd"/>
    <path id="Path_7591" data-name="Path 7591" d="M37.074,54.026h0a1.279,1.279,0,0,0-.244-.367,1.5,1.5,0,0,0-1.039-.672,3.607,3.607,0,0,0-.856-.122c-.306,0-.55-.061-.856-.061a17.637,17.637,0,0,1-1.772-.244c-.122-.061-.306-.061-.428-.122-.061,0-.122-.061-.244-.061-.061-.061-.122-.061-.244-.122a2.309,2.309,0,0,1-.733-.55c-.428-.428-.795-.917-1.161-1.345a11.714,11.714,0,0,0-1.1-1.345,4.42,4.42,0,0,0-1.345-1.039,5.148,5.148,0,0,0-1.65-.489,3.489,3.489,0,0,1,1.772.244,5.02,5.02,0,0,1,1.528.978,5.278,5.278,0,0,1,.795.856,6.314,6.314,0,0,1,4.523.611h0a4.015,4.015,0,0,1,1.039.733c.061.061.122.061.122.122a7.326,7.326,0,0,1,.672.733h0A3.474,3.474,0,0,1,37.074,54.026Z" transform="translate(-4.121 -2.708)" fill="#d1b6cd"/>
    <path id="Path_7592" data-name="Path 7592" d="M44.5,58.2Z" transform="translate(-11.547 -6.882)" fill="#d1b6cd"/>
    <path id="Path_7593" data-name="Path 7593" d="M25.661,48.3a1.965,1.965,0,0,1,1.284.611,3.411,3.411,0,0,1,.55,1.284,5.176,5.176,0,0,0,.244,1.039,2.658,2.658,0,0,0,.244.428c.061.122.183.244.244.367v.122c-.183.183-.611,0-.795-.122a2.521,2.521,0,0,1-.795-.611A4.32,4.32,0,0,1,25.6,48.606,2.647,2.647,0,0,0,25.661,48.3Z" transform="translate(-4.199 -3.033)" fill="#d1b6cd"/>
    <path id="Path_7594" data-name="Path 7594" d="M38.6,62.3c-1.039,2.873,3.667,4.828,1.895,7.762a3.743,3.743,0,0,0,1.895-4.767C41.782,63.706,39.826,63.095,38.6,62.3Z" transform="translate(-9.196 -8.476)" fill="#d1b6cd"/>
    <path id="Path_7595" data-name="Path 7595" d="M28.6,65.6l.917-.55a5.163,5.163,0,0,1,1.039-.306,9.2,9.2,0,0,0,1.956-.428,2.157,2.157,0,0,0,.795-.489,1.558,1.558,0,0,0,.489-.733,2.376,2.376,0,0,0,.122-.917,2.562,2.562,0,0,0-.244-.978,2.55,2.55,0,0,1,.55.978,2.245,2.245,0,0,1,.061,1.1,2.451,2.451,0,0,1-.55,1.039,2.662,2.662,0,0,1-.978.611,7.106,7.106,0,0,1-1.1.244c-.367,0-.672.061-1.039.061A5.868,5.868,0,0,0,28.6,65.6Z" transform="translate(-5.365 -8.048)" fill="#d1b6cd"/>
    <path id="Path_7596" data-name="Path 7596" d="M33.3,73.877c-.122.061-.183.183-.306.244l-.367.183a1.952,1.952,0,0,1-.856.183,1.909,1.909,0,0,1-1.65-1.284c-.244-.428-.367-.917-.611-1.345a1.982,1.982,0,0,0-1.772-1.039,1,1,0,0,0-.733.428,1.037,1.037,0,0,0,1.039,1.528.225.225,0,0,0,.183-.061c.061,0,.122-.061.183-.122a1.279,1.279,0,0,0,.244-.367,1.192,1.192,0,0,0,.061-.489.561.561,0,0,0-.244-.367.551.551,0,0,1,.367.367,3,3,0,0,0-.061.672,1.229,1.229,0,0,1-.244.489.844.844,0,0,1-.244.183.463.463,0,0,1-.244.122,1.692,1.692,0,0,1-.55.061,1.569,1.569,0,0,1-.733-.306c-.244-.183-.428-.489-.672-.672a2.553,2.553,0,0,0-.917-.672,3.445,3.445,0,0,0-.733-.244c-.122,0-.244-.061-.367-.061-.061,0-.367-.061-.367-.061.428-.367.856-.672,1.284-.978a6.83,6.83,0,0,1,1.528-.672,4,4,0,0,1,1.711-.122,4.5,4.5,0,0,1,.856.244,3.465,3.465,0,0,1,.795.489,2.873,2.873,0,0,1,.55.733,3.5,3.5,0,0,1,.244.856c.183.856.122,2.2,1.222,2.384h.367a.775.775,0,0,0,.367-.061A1.814,1.814,0,0,0,33.3,73.877Z" transform="translate(-3.46 -11.252)" fill="#d1b6cd"/>
    <path id="Path_7597" data-name="Path 7597" d="M28.7,75.2Z" transform="translate(-5.404 -13.491)" fill="#d1b6cd"/>
    <path id="Path_7598" data-name="Path 7598" d="M22.318,49.607a2.98,2.98,0,0,1-.183.428,1.911,1.911,0,0,1-.672.55,1.692,1.692,0,0,1-.795.183h-.183a.813.813,0,0,0-.489.183.619.619,0,0,0-.244.428c0,.061-.061.183-.061.244,0,.244-.061.428-.061.733a4.856,4.856,0,0,1-.367,1.345,3.239,3.239,0,0,0-.489,1.65,1.441,1.441,0,0,0,.55.978c.489.55,1.65.795,1.406,2.078C20.545,59.2,19.262,60,17.489,60.3c.183,0-.244-.733-.244-.795a7.277,7.277,0,0,1-.55-.917,3.484,3.484,0,0,1-.306-2.078,4.973,4.973,0,0,1,1.1-1.895,5.154,5.154,0,0,0,1.222-2.445,3.659,3.659,0,0,1,.122-.733,4.5,4.5,0,0,1,.244-.856,1.282,1.282,0,0,1,.367-.489.463.463,0,0,0,.122-.244.551.551,0,0,0-.061-.306l-2.873-5.2,4.156,5.134c.061.061.122.122.183.122.061.061.122.061.244.061a.462.462,0,0,0,.244-.061c.061-.061.122-.061.183-.122s.061-.122.061-.244A.367.367,0,0,0,21.645,49a12.8,12.8,0,0,0-.856-1.039l-1.039-1.284-2.078-2.567L14.8,40.5l3.117,3.362,2.2,2.445,1.1,1.222c.367.428.733.795,1.1,1.284l.061.061V49A1.884,1.884,0,0,1,22.318,49.607Z" transform="translate(0)" fill="#d1b6cd"/>
    <path id="Path_7599" data-name="Path 7599" d="M28.35,74.75l-.55-.55A1.578,1.578,0,0,0,28.35,74.75Z" transform="translate(-5.054 -13.103)" fill="#d1b6cd"/>
    <path id="Path_7600" data-name="Path 7600" d="M91.139,52.43A2.994,2.994,0,0,0,88.755,56.4a4.265,4.265,0,0,0,2.078,2.261c1.895,1.1,2.506,1.528,2.812,2.2a1.61,1.61,0,0,1,.183,1.284,2.26,2.26,0,0,1-2.384,1.834,2.208,2.208,0,0,1-2.323-1.834c-.061-.489-.183-.611-.367-.611-.244,0-.306.122-.306,1.284V64.1l.795.244a6.221,6.221,0,0,0,4.1-.122c2.078-.978,2.873-2.873,1.956-4.645a7.644,7.644,0,0,0-2.689-2.323c-1.589-.978-2.261-1.65-2.384-2.323-.183-1.1.795-1.956,2.139-1.956,1.039,0,1.467.244,1.834,1.039.244.489.367.672.672.672s.367-.061.244-.367a4.389,4.389,0,0,1-.122-1.039c0-.489-.061-.733-.244-.795A11.821,11.821,0,0,0,91.139,52.43ZM50.8,52.857c0,.244.122.306.367.306.733,0,.795.183.856,4.645.061,3.851.122,4.156.428,4.767a3.979,3.979,0,0,0,1.956,1.772,4.438,4.438,0,0,0,2.323.367,4.147,4.147,0,0,0,2.384-.428,4.78,4.78,0,0,0,1.345-.978c.856-1.039.978-1.589,1.039-5.868.122-4.156.122-4.217.795-4.217.183,0,.244-.122.244-.306,0-.306-.122-.306-1.834-.306s-1.834,0-1.834.306c0,.244.122.306.489.367.795.061.856.367.856,4.156,0,3.851-.122,4.584-.978,5.379a2.934,2.934,0,0,1-2.384.978A2.682,2.682,0,0,1,53.978,61.9a24.451,24.451,0,0,1-.122-4.523l.061-3.912.55-.183a1.3,1.3,0,0,0,.611-.428c.061-.244-.183-.244-2.078-.244C50.922,52.552,50.8,52.552,50.8,52.857Zm14.241,0c0,.244.122.306.428.306a1.252,1.252,0,0,1,1.406.978A35.58,35.58,0,0,1,67,58.786c-.061,4.523-.122,4.828-1.039,5.012-.306.061-.428.183-.428.367,0,.244.122.306,2.139.306,1.956,0,2.139,0,2.139-.244,0-.183-.183-.306-.672-.428-.611-.183-.672-.244-.856-.733a45.233,45.233,0,0,1-.061-7.579,10.025,10.025,0,0,1,1.345,1.406c.672.795,2.445,2.812,4.034,4.462,2.445,2.628,2.873,3.117,3.239,3.117h.428l.061-5.379c.061-3.851.122-5.44.244-5.562a1.719,1.719,0,0,1,.672-.306c.306-.061.489-.183.489-.306,0-.183-.367-.244-2.078-.244-2.017-.061-2.078-.061-2.078.244,0,.244.122.306.367.306a1.816,1.816,0,0,1,.795.367l.428.367.061,3.667c0,2.078,0,3.667-.061,3.667a7.31,7.31,0,0,1-1.039-1.039c-.489-.55-1.895-2.139-3.117-3.484s-2.567-2.812-2.995-3.3l-.733-.856H66.691C65.1,52.552,65.041,52.552,65.041,52.857Zm16.013,0c0,.244.122.306.428.306a1.5,1.5,0,0,1,.733.244c.306.183.306.489.367,4.706.061,5.256,0,5.562-.917,5.684-.428.061-.611.183-.611.367,0,.244.183.306,2.323.306,2.2,0,2.323,0,2.323-.306,0-.244-.122-.306-.367-.306a1.5,1.5,0,0,1-.672-.244c-.306-.183-.306-.489-.367-5.012-.061-4.645-.061-4.828.244-5.134a1.114,1.114,0,0,1,.672-.306c.306,0,.367-.061.367-.306,0-.306-.122-.306-2.323-.306C81.177,52.552,81.054,52.552,81.054,52.857Zm16.075,0a.407.407,0,0,0,.428.306,1.236,1.236,0,0,1,.672.367,59.405,59.405,0,0,1,2.384,5.684l2.017,5.317.55.061.55.061,1.406-3.789c.795-2.078,1.528-3.973,1.589-4.156.183-.367.183-.306.672.917.244.733.978,2.567,1.589,4.156l1.1,2.873h.489c.244,0,.489-.061.55-.183s.733-1.895,1.589-3.973c.795-2.078,1.711-4.4,2.017-5.134.672-1.711.795-1.895,1.284-2.078.244-.061.428-.244.428-.367,0-.183-.306-.244-1.834-.244-1.711,0-1.834,0-1.834.306,0,.244.122.306.367.306.611,0,.856.183.856.55,0,.306-2.934,8.19-3.117,8.373a68.754,68.754,0,0,1-2.812-7.946c-.122-.672.183-.978.856-.978.244,0,.367-.061.367-.306,0-.306-.122-.306-2.384-.306s-2.384,0-2.384.306a.28.28,0,0,0,.244.306,1.676,1.676,0,0,1,1.284.917c.244.672.061,1.345-1.345,5.012l-1.161,3.117-.244-.611c-.122-.306-.856-2.261-1.589-4.278-1.467-3.973-1.467-4.156-.489-4.156.367,0,.428-.061.428-.306,0-.306-.122-.306-2.261-.306C97.068,52.552,97.007,52.552,97.129,52.857Zm30.927.122v.244c0,.061.183.061.183.061.122,0,.183.061.306.061.489.122.795.183.917.489a32.707,32.707,0,0,1,.122,4.767c0,4.034,0,4.523-.122,4.767-.122.306-.367.489-.978.672a1.033,1.033,0,0,0-.306.122.306.306,0,0,0,0,.367c.061.061.244.061.244.061h4.1a.26.26,0,0,0,.183-.428,1.033,1.033,0,0,0-.306-.122c-.55-.122-.856-.306-.978-.611a6.849,6.849,0,0,1-.122-2.078V59.519c.061.061.122.061.183.122a3.081,3.081,0,0,0,2.017.489,3.561,3.561,0,0,0,3.239-1.528,4.3,4.3,0,0,0,.367-3.667,3.518,3.518,0,0,0-3.484-2.384,24.714,24.714,0,0,0-3.056.061h-.183c-.672,0-1.528.122-1.956.122h0c-.122,0-.122,0-.183.061C128.056,52.919,128.056,52.98,128.056,52.98ZM134.84,58.6a2.923,2.923,0,0,0,.672-2.261,2.7,2.7,0,0,0-2.689-2.873c-.55,0-1.589.061-1.65.795a17.5,17.5,0,0,0-.061,2.384v2.2l.244.122h0a2.842,2.842,0,0,0,.55.183A3.516,3.516,0,0,0,134.84,58.6Zm-14.058-5.868a2.57,2.57,0,0,0,.306-.122s.244-.122.306,0c0,.061.122.244.367.856a.869.869,0,0,1,.122.367c.306.856.795,2.078,1.039,2.75s.733,1.895,1.1,2.873c.367.917.795,2.078,1.039,2.628a7.091,7.091,0,0,0,.55,1.161c.061.061.061.122.122.183.183.244.367.611.795.672a1.267,1.267,0,0,1,.367.122.189.189,0,0,1,.061.122v.183a.06.06,0,0,1-.061.061c0,.061-.122,0-.122,0h-4.523c-.061,0-.061-.122-.061-.122v-.122a.3.3,0,0,1,.061-.183,1.267,1.267,0,0,1,.367-.122.99.99,0,0,0,.856-.733v-.061c.122-.244.061-.428-.489-1.711a6.514,6.514,0,0,0-.55-1.161h-4.1l-.122.306a11.981,11.981,0,0,0-.672,2.139.941.941,0,0,0,.795,1.222,1.267,1.267,0,0,1,.367.122.879.879,0,0,1,.122.183v.122a.189.189,0,0,1-.061.122c-.061.061-.183,0-.183,0h-3.728a.216.216,0,0,1-.183-.183v-.122s0-.061.122-.183a.6.6,0,0,1,.367-.122c.489-.061.795-.611.978-.917A.06.06,0,0,1,116.2,63c.061-.122.367-.795.672-1.528s.611-1.589.733-1.834c.367-.917.733-1.772,1.284-3.117.306-.733.733-1.834.978-2.445l.428-1.1Zm-.122,2.628a6.855,6.855,0,0,1,.306.795c.061.183.306.733.489,1.222s.428,1.039.55,1.284a3.634,3.634,0,0,1,.183.428h-1.65a7.14,7.14,0,0,1-1.65-.061.632.632,0,0,0,.061-.244c.061-.183.428-1.161,1.161-3.239a5.01,5.01,0,0,0,.244-.672C120.416,54.874,120.477,54.935,120.66,55.363Z" transform="translate(-13.997 -4.595)" fill="#833a78" fill-rule="evenodd"/>
  </g>
</svg>
