<svg xmlns="http://www.w3.org/2000/svg" width="21.714" height="19" viewBox="0 0 21.714 19">
  <path id="wallet" d="M20.357,40.821V38.786A1.357,1.357,0,0,0,19,37.429H4.071a1.357,1.357,0,0,1,0-2.714H19A1.357,1.357,0,0,0,19,32H4.071A4.076,4.076,0,0,0,0,36.071V48.286A2.714,2.714,0,0,0,2.714,51H19a1.357,1.357,0,0,0,1.357-1.357V47.607a1.357,1.357,0,0,0,1.357-1.357V42.179A1.357,1.357,0,0,0,20.357,40.821Zm-2.036,4.75a1.357,1.357,0,1,1,1.357-1.357A1.357,1.357,0,0,1,18.321,45.571Z" transform="translate(0 -32)" fill="#fff"/>
</svg>
